<svg data-name="Layer 1" xmlns="http://www.w3.org/2000/svg" viewBox="0 0 47 47"><defs><clipPath id="a" transform="translate(4.55 4.55)"><path d="M33.2 1.2L19 15.5 4.8 1.2a2.42 2.42 0 0 0-3.5 0 2.42 2.42 0 0 0 0 3.5L15.5 19 1.2 33.2a2.42 2.42 0 0 0 0 3.5 2.42 2.42 0 0 0 3.5 0L19 22.5l14.2 14.2a2.42 2.42 0 0 0 3.5 0 2.5 2.5 0 0 0 0-3.5L22.5 19 36.7 4.8a2.42 2.42 0 0 0 0-3.5 2.51 2.51 0 0 0-3.5-.1z" fill="none" clip-rule="evenodd"/></clipPath></defs><g clip-path="url(#a)"><path fill="#4c4e56" d="M0 0h47v47H0z"/></g></svg>