<svg xmlns="http://www.w3.org/2000/svg" viewBox="0 0 24 24">
    <path style="line-height:normal;text-indent:0;text-align:start;text-decoration-line:none;text-decoration-style:solid;text-decoration-color:#000;text-transform:none;block-progression:tb;isolation:auto;mix-blend-mode:normal" d="M 5 3 C 3.9069372 3 3 3.9069372 3 5 L 3 11 L 3 13 L 3 19 C 3 20.093063 3.9069372 21 5 21 L 19 21 C 20.093063 21 21 20.093063 21 19 L 21 5 C 21 3.9069372 20.093063 3 19 3 L 5 3 z M 5 5 L 19 5 L 19 19 L 5 19 L 5 13 L 11.585938 13 L 9.2929688 15.292969 L 10.707031 16.707031 L 15.414062 12 L 10.707031 7.2929688 L 9.2929688 8.7070312 L 11.585938 11 L 5 11 L 5 5 z" font-weight="400" font-family="sans-serif" white-space="normal" overflow="visible"></path>
</svg>